<mxfile host="app.diagrams.net" modified="2023-08-18T18:32:23.987Z" agent="Mozilla/5.0 (Windows NT 10.0; Win64; x64) AppleWebKit/537.36 (KHTML, like Gecko) Chrome/115.0.0.0 Safari/537.36" etag="0t_7H_pbkNxsNMgyjutK" version="21.6.8" type="device">
  <diagram name="PÃ¡gina-1" id="7nD_D64CqSfUBlgdOcge">
    <mxGraphModel dx="1195" dy="658" grid="1" gridSize="10" guides="1" tooltips="1" connect="1" arrows="1" fold="1" page="1" pageScale="1" pageWidth="827" pageHeight="1169" math="0" shadow="0">
      <root>
        <mxCell id="0" />
        <mxCell id="1" parent="0" />
        <mxCell id="ZXfzxbqZ0TVIOwGf7w-Q-5" value="Alumno" style="swimlane;childLayout=stackLayout;horizontal=1;startSize=50;horizontalStack=0;rounded=1;fontSize=14;fontStyle=0;strokeWidth=2;resizeParent=0;resizeLast=1;shadow=0;dashed=0;align=center;arcSize=4;whiteSpace=wrap;html=1;" vertex="1" parent="1">
          <mxGeometry x="190" y="300" width="310" height="150" as="geometry" />
        </mxCell>
        <mxCell id="ZXfzxbqZ0TVIOwGf7w-Q-6" value="+ id INT UNSIGNED AUTO_INCREMENT primary key&lt;br&gt;+ nombre varchar(100) NOT NULL&lt;br&gt;+ apellido1 varchar(100) NOT NULL&lt;br&gt;+ apellido2 varchar(100)&amp;nbsp;&lt;br&gt;+ curso varchar(100)&lt;br&gt;+ turno varchar(100)" style="align=left;strokeColor=none;fillColor=none;spacingLeft=4;fontSize=12;verticalAlign=top;resizable=0;rotatable=0;part=1;html=1;" vertex="1" parent="ZXfzxbqZ0TVIOwGf7w-Q-5">
          <mxGeometry y="50" width="310" height="100" as="geometry" />
        </mxCell>
        <mxCell id="ZXfzxbqZ0TVIOwGf7w-Q-7" value="Asistencia" style="swimlane;childLayout=stackLayout;horizontal=1;startSize=50;horizontalStack=0;rounded=1;fontSize=14;fontStyle=0;strokeWidth=2;resizeParent=0;resizeLast=1;shadow=0;dashed=0;align=center;arcSize=4;whiteSpace=wrap;html=1;" vertex="1" parent="1">
          <mxGeometry x="680" y="300" width="310" height="150" as="geometry" />
        </mxCell>
        <mxCell id="ZXfzxbqZ0TVIOwGf7w-Q-8" value="+ id INT UNSIGNED AUTO_INCREMENT primary key&lt;br&gt;+ fecha DATE&lt;br&gt;+ presentismo enum(&#39;Tarde&#39;, &#39;Temprano&#39;, &#39;Ausente&#39;)&amp;nbsp;&lt;br&gt;+ idAlumno INT UNSIGNED NOT NULL&lt;br&gt;+ FOREIGN KEY (idAlumno) REFERENCES Alumno(id)" style="align=left;strokeColor=none;fillColor=none;spacingLeft=4;fontSize=12;verticalAlign=top;resizable=0;rotatable=0;part=1;html=1;" vertex="1" parent="ZXfzxbqZ0TVIOwGf7w-Q-7">
          <mxGeometry y="50" width="310" height="100" as="geometry" />
        </mxCell>
        <mxCell id="ZXfzxbqZ0TVIOwGf7w-Q-12" value="" style="endArrow=none;html=1;rounded=0;entryX=0;entryY=0.25;entryDx=0;entryDy=0;" edge="1" parent="1" target="ZXfzxbqZ0TVIOwGf7w-Q-8">
          <mxGeometry relative="1" as="geometry">
            <mxPoint x="500" y="374.71" as="sourcePoint" />
            <mxPoint x="670" y="375" as="targetPoint" />
          </mxGeometry>
        </mxCell>
        <mxCell id="ZXfzxbqZ0TVIOwGf7w-Q-13" value="N" style="resizable=0;html=1;whiteSpace=wrap;align=left;verticalAlign=bottom;" connectable="0" vertex="1" parent="ZXfzxbqZ0TVIOwGf7w-Q-12">
          <mxGeometry x="-1" relative="1" as="geometry" />
        </mxCell>
        <mxCell id="ZXfzxbqZ0TVIOwGf7w-Q-14" value="1" style="resizable=0;html=1;whiteSpace=wrap;align=right;verticalAlign=bottom;" connectable="0" vertex="1" parent="ZXfzxbqZ0TVIOwGf7w-Q-12">
          <mxGeometry x="1" relative="1" as="geometry" />
        </mxCell>
      </root>
    </mxGraphModel>
  </diagram>
</mxfile>
